<?xml version="1.0" encoding="utf-8"?>
<!-- Generator: Adobe Illustrator 28.1.0, SVG Export Plug-In . SVG Version: 6.00 Build 0)  -->
<svg version="1.1" id="Layer_1" xmlns="http://www.w3.org/2000/svg" xmlns:xlink="http://www.w3.org/1999/xlink" x="0px" y="0px"
	 viewBox="0 0 336.9 24.1" style="enable-background:new 0 0 336.9 24.1;" xml:space="preserve">
<style type="text/css">
	.st0{fill:#FFFFFF;}
</style>
<g>
	<g>
		<path id="logo-a1" class="st0" d="M0.6,11.3c0.5-2.6,2.8-4.4,6-4.4c3.7,0,6.6,1.6,6.6,6.6v9.3H10l-0.4-2c-1.1,1.4-2.6,2.3-4.8,2.3
			c-2.7,0-4.8-1.7-4.8-4.8s2.8-5.1,6.7-5.1h2.6v-0.7c0-1.8-1.3-2.3-2.8-2.3c-1.1,0-2.2,0.4-2.7,1.8L0.6,11.3z M5.7,19.8
			c1.8,0,3.6-1.2,3.6-3.2v-0.3H6.8c-1.7-0.1-2.7,0.6-2.7,2C4.1,19,4.7,19.8,5.7,19.8z"/>
		<path id="logo-a2" class="st0" d="M76,11.3c0.5-2.6,2.8-4.4,6-4.4c3.7,0,6.6,1.6,6.6,6.6v9.3h-3.2l-0.4-2
			c-1.1,1.4-2.6,2.3-4.8,2.3c-2.7,0-4.8-1.7-4.8-4.8s2.8-5.1,6.7-5.1h2.6v-0.7c0-1.8-1.3-2.3-2.8-2.3c-1.1,0-2.2,0.4-2.7,1.8
			L76,11.3z M81.1,19.8c1.8,0,3.6-1.2,3.6-3.2v-0.3h-2.6c-1.7,0-2.7,0.6-2.7,2C79.5,19,80.1,19.8,81.1,19.8z"/>
		<path id="logo-r" class="st0" d="M92.1,22.9V7.1H96v2.6c1.1-1.9,2.9-2.8,4.6-2.8c0.7,0,1.3,0.1,1.9,0.3l-0.7,3.6
			c-0.5-0.3-1-0.5-1.6-0.5c-2.3,0-4.2,1.9-4.2,6.9v5.6L92.1,22.9L92.1,22.9z"/>
		<path id="logo-d" class="st0" d="M110.8,6.9c1.6,0,3.1,0.8,3.8,1.7V0.8h3.9v22.1h-3.9v-1.6c-0.5,0.8-1.9,1.9-3.8,1.9
			c-4.7,0-7.1-3.3-7.1-8.1S106.1,6.9,110.8,6.9z M111.4,19.8c2,0,3.6-1.7,3.6-4.8s-1.6-4.8-3.6-4.8s-3.6,1.7-3.6,4.8
			S109.4,19.8,111.4,19.8z"/>
		<path id="logo-s" class="st0" d="M132.5,9.4l-2.3,2.1c-0.7-1-1.8-1.4-2.6-1.4c-0.8,0-1.5,0.5-1.5,1.3c0,0.7,0.6,1.2,1.5,1.5
			c2.2,0.8,5.7,1.5,5.7,4.8c0,2.9-2.2,5.2-5.6,5.2c-3.3,0-5.5-2.3-6.2-4.2l3.1-1.7c0.6,1.5,1.6,2.6,3.2,2.6c1.2,0,2-0.6,2-1.7
			c0-1.3-2-1.6-3.9-2.4c-1.7-0.7-3.2-1.8-3.2-4.2s2-4.6,5-4.6C129.7,6.8,131.6,7.9,132.5,9.4z"/>
		<polygon id="logo-w2" class="st0" points="51.9,7.1 49.1,18 46.4,7.1 42.8,7.1 40.2,18 38,11.7 37.7,12.4 36.5,16.5 38.5,22.9 
			41.9,22.9 44.6,12.7 47.3,22.9 50.8,22.9 55.8,7.1 		"/>
		<polygon id="logo-w3" class="st0" points="70.6,7.1 67.8,18 65.1,7.1 61.5,7.1 58.9,18 56.7,11.7 56.4,12.4 55.1,16.5 57.2,22.9 
			60.6,22.9 63.3,12.7 66,22.9 69.4,22.9 74.5,7.1 		"/>
		<path id="logo-w1" class="st0" d="M37.1,7.1l-5,15.7h-3.4L26,12.7l-2.7,10.2h-3.4l-5-15.7h3.9L21.6,18l2.7-10.8h3.6L30.6,18
			l2.8-10.8L37.1,7.1L37.1,7.1z"/>
		<path id="logo-p" class="st0" d="M138.4,17.8c1.5,0,2.6,1.1,2.6,2.6c0,1.5-1.1,2.6-2.6,2.6s-2.6-1.1-2.6-2.6
			C135.8,18.9,136.9,17.8,138.4,17.8z"/>
	</g>
	<g id="Page-1">
		<g id="logo">
			<g id="Group">
				<polygon id="Shape" class="st0" points="189.4,16 189.4,16 181.3,8 189.4,0 181.3,0 173.2,8 177.3,12.1 181.3,16 185.4,20 				
					"/>
				<polygon id="Shape_00000110441506684802824970000004473930453333075601_" class="st0" points="195.2,12.1 191.2,8 187.1,4.1 
					183.1,8 191.2,16 191.2,16 191.2,16 183,24.1 191.2,24.1 195.2,20.1 199.3,16 				"/>
			</g>
			<g id="Group_00000076587345108727248080000013392779095171792318_" transform="translate(30.637363, 5.406593)">
				<path id="Shape_00000142856803544993543550000009323876512260732056_" class="st0" d="M178.7,2.6c-1.2,0-2.2,0.4-2.9,1.2
					s-1.1,1.9-1.1,3.3s0.4,2.5,1,3.3c0.7,0.8,1.6,1.2,2.9,1.2c0.8,0,1.6-0.2,2.6-0.5v1.2c-0.8,0.3-1.7,0.5-2.8,0.5
					c-1.6,0-2.9-0.5-3.8-1.4c-0.9-1-1.4-2.4-1.4-4.2c0-1.2,0.2-2.2,0.6-3c0.5-0.8,1.1-1.5,1.8-2c0.7-0.5,1.7-0.7,2.9-0.7
					c1.2,0,2.2,0.2,3.1,0.6l-0.5,1.1C180.4,2.9,179.6,2.6,178.7,2.6z"/>
				<path id="Shape_00000120516768598028036500000004584532338600067718_" class="st0" d="M190,9.7c0,1-0.4,1.7-1.1,2.3
					s-1.6,0.8-2.9,0.8c-1.4,0-2.3-0.2-3.1-0.5V11c0.5,0.2,1,0.4,1.4,0.5s1.1,0.2,1.6,0.2c0.9,0,1.5-0.2,1.9-0.5
					c0.5-0.4,0.6-0.8,0.6-1.4c0-0.4-0.1-0.7-0.3-0.9c-0.2-0.3-0.5-0.5-0.8-0.7c-0.4-0.2-0.9-0.5-1.6-0.7c-1-0.4-1.8-0.8-2.2-1.4
					c-0.5-0.5-0.6-1.2-0.6-2s0.4-1.5,1-2.1s1.5-0.7,2.5-0.7c1.1,0,2.1,0.2,3.1,0.6l-0.4,1.1c-0.9-0.4-1.8-0.5-2.7-0.5
					c-0.7,0-1.2,0.2-1.6,0.5c-0.4,0.3-0.5,0.7-0.5,1.3c0,0.4,0.1,0.7,0.2,0.9c0.2,0.3,0.4,0.5,0.7,0.6c0.4,0.2,0.8,0.5,1.5,0.7
					c1.2,0.5,2,0.9,2.4,1.4C189.8,8.4,190,9,190,9.7z"/>
				<path id="Shape_00000160879353295707396860000015171941664068375986_" class="st0" d="M198.5,9.7c0,1-0.4,1.7-1.1,2.3
					s-1.6,0.8-2.9,0.8c-1.4,0-2.3-0.2-3.1-0.5V11c0.5,0.2,1,0.4,1.4,0.5s1.1,0.2,1.6,0.2c0.9,0,1.5-0.2,1.9-0.5
					c0.5-0.4,0.6-0.8,0.6-1.4c0-0.4-0.1-0.7-0.3-0.9c-0.2-0.3-0.5-0.5-0.8-0.7c-0.4-0.2-0.9-0.5-1.6-0.7c-1-0.4-1.8-0.8-2.2-1.4
					c-0.5-0.5-0.6-1.2-0.6-2s0.4-1.5,1-2.1s1.5-0.7,2.5-0.7c1.1,0,2.1,0.2,3.1,0.6l-0.4,1.1c-0.9-0.4-1.8-0.5-2.7-0.5
					c-0.7,0-1.2,0.2-1.6,0.5c-0.4,0.3-0.5,0.7-0.5,1.3c0,0.4,0.1,0.7,0.2,0.9c0.2,0.3,0.4,0.5,0.7,0.6c0.4,0.2,0.8,0.5,1.5,0.7
					c1.2,0.5,2,0.9,2.4,1.4C198.3,8.4,198.5,9,198.5,9.7z"/>
				<path id="Shape_00000116218258537122744240000007449614791545376147_" class="st0" d="M209.8,6.9c0,1.8-0.5,3.2-1.5,4.2
					s-2.4,1.5-4.3,1.5h-3.6V1.6h3.8c1.8,0,3.2,0.5,4.1,1.4S209.8,5.2,209.8,6.9z M206.7,7c0-1-0.2-1.8-0.6-2.3
					c-0.4-0.5-1-0.7-1.8-0.7h-0.9v6.2h0.6c0.9,0,1.5-0.3,2-0.8C206.6,8.9,206.7,8.1,206.7,7z"/>
				<path id="Shape_00000106851734269769887810000005086765430904669884_" class="st0" d="M215.8,12.9c-1.4,0-2.5-0.4-3.3-1.2
					c-0.8-0.7-1.2-1.8-1.2-3.2s0.4-2.5,1.1-3.3c0.7-0.8,1.8-1.2,3.2-1.2c1.3,0,2.3,0.4,3,1c0.7,0.6,1.1,1.6,1.1,2.9v1.4h-5.3
					c0,0.5,0.2,0.8,0.5,1.2c0.4,0.3,0.8,0.5,1.4,0.5c0.5,0,1-0.1,1.4-0.2c0.5-0.1,0.9-0.3,1.4-0.5v2.2c-0.5,0.3-0.9,0.4-1.4,0.5
					C217,12.8,216.5,12.9,215.8,12.9z M215.6,6c-0.4,0-0.6,0.1-0.9,0.4c-0.3,0.2-0.4,0.5-0.5,1h2.5c0-0.5-0.1-0.7-0.4-1
					C216.3,6.1,216,6,215.6,6z"/>
				<path id="Shape_00000001635193809381043340000007511211286601474491_" class="st0" d="M227.8,10.1c0,0.9-0.3,1.6-0.9,2.1
					c-0.6,0.5-1.5,0.7-2.7,0.7c-0.6,0-1.2,0-1.6-0.1s-1-0.2-1.4-0.4v-2.3c0.5,0.2,1,0.4,1.5,0.5c0.5,0.1,1,0.2,1.4,0.2
					c0.6,0,1-0.2,1-0.5c0-0.2-0.1-0.3-0.3-0.4c-0.2-0.1-0.7-0.4-1.5-0.7s-1.4-0.7-1.6-1.1c-0.3-0.5-0.5-0.9-0.5-1.5
					c0-0.8,0.3-1.4,0.9-1.9c0.6-0.5,1.4-0.6,2.6-0.6c0.5,0,1.1,0.1,1.6,0.2c0.5,0.1,1,0.3,1.5,0.5l-0.8,1.9
					c-0.4-0.2-0.8-0.4-1.3-0.5c-0.5-0.1-0.8-0.2-1.1-0.2c-0.5,0-0.7,0.1-0.7,0.4c0,0.2,0.1,0.3,0.3,0.4c0.2,0.1,0.6,0.3,1.4,0.6
					c0.6,0.3,1.1,0.5,1.4,0.7c0.3,0.3,0.5,0.5,0.6,0.8C227.7,9.2,227.8,9.6,227.8,10.1z"/>
				<path id="Shape_00000141421617859504434260000003635950415025764227_" class="st0" d="M229.5,2c0-0.5,0.1-0.8,0.4-1
					c0.3-0.2,0.6-0.4,1.2-0.4c0.5,0,1,0.1,1.2,0.4c0.3,0.2,0.4,0.5,0.4,1c0,0.9-0.5,1.3-1.6,1.3C229.9,3.3,229.5,2.9,229.5,2z
					 M232.4,12.7h-3V4.1h3V12.7z"/>
				<path id="Shape_00000161603119325599858670000000680129762092002190_" class="st0" d="M242.6,4.1v1.4L241.4,6
					c0.2,0.3,0.3,0.6,0.3,1c0,0.9-0.4,1.6-1,2.2s-1.6,0.7-2.9,0.7c-0.4,0-0.5,0-0.7-0.1c-0.1,0.1-0.1,0.3-0.1,0.4
					c0,0.2,0.1,0.3,0.4,0.4c0.3,0.1,0.5,0.1,0.9,0.1h1.4c1.9,0,2.9,0.8,2.9,2.4c0,1.1-0.5,1.9-1.4,2.4c-0.9,0.5-2.2,0.9-3.8,0.9
					c-1.2,0-2.2-0.2-2.8-0.6c-0.6-0.4-1-1-1-1.7c0-1,0.6-1.7,1.9-2c-0.3-0.1-0.5-0.3-0.7-0.5c-0.2-0.3-0.3-0.5-0.3-0.7
					s0.1-0.5,0.2-0.7c0.2-0.2,0.5-0.5,0.9-0.7c-0.5-0.2-0.8-0.5-1.1-0.9c-0.3-0.5-0.4-0.9-0.4-1.5c0-0.9,0.4-1.6,1-2.2
					s1.5-0.8,2.7-0.8c0.2,0,0.5,0,0.8,0.1c0.4,0,0.6,0.1,0.8,0.1H242.6L242.6,4.1z M236.1,13.8c0,0.3,0.1,0.5,0.4,0.6
					c0.3,0.2,0.6,0.2,1.1,0.2c0.7,0,1.3-0.1,1.7-0.3s0.6-0.5,0.6-0.7c0-0.3-0.1-0.4-0.4-0.5c-0.3-0.1-0.6-0.2-1.2-0.2h-1.2
					c-0.4,0-0.5,0.1-0.8,0.2C236.2,13.3,236.1,13.5,236.1,13.8z M237,6.9c0,0.9,0.3,1.4,0.9,1.4c0.3,0,0.5-0.1,0.6-0.4
					c0.2-0.2,0.3-0.5,0.3-1c0-0.9-0.3-1.4-0.9-1.4C237.4,5.6,237,6,237,6.9z"/>
				<path id="Shape_00000152228540853013707700000015742222703834455697_" class="st0" d="M249.3,12.7V8c0-0.5-0.1-1-0.3-1.3
					c-0.2-0.3-0.5-0.5-0.8-0.5c-0.5,0-0.9,0.2-1.1,0.6c-0.2,0.4-0.4,1.1-0.4,2.1v3.8h-3V4.2h2.3l0.4,1.1h0.2
					c0.3-0.4,0.6-0.7,1.1-0.9c0.5-0.2,1-0.3,1.5-0.3c1,0,1.7,0.3,2.3,0.8c0.5,0.5,0.8,1.4,0.8,2.3v5.6h-3V12.7z"/>
				<path id="Shape_00000103945689455766718790000005894412567541042853_" class="st0" d="M261.7,12.7l-1.4-3.5h-4.4l-1.4,3.5h-1.3
					l4.4-11.1h1.1l4.3,11.1H261.7z M259.9,8l-1.3-3.4c-0.2-0.5-0.4-1-0.5-1.6c-0.1,0.5-0.3,1-0.5,1.6L256.4,8H259.9L259.9,8z"/>
				<path id="Shape_00000164498546746532426920000017146141277802528687_" class="st0" d="M271.2,12.7l-1.5-4.9
					c-0.1-0.3-0.3-1-0.5-2H269c-0.2,0.9-0.4,1.5-0.5,2.1l-1.5,4.9h-1.4l-2.3-8.3h1.4c0.5,2.1,0.9,3.7,1.3,4.8
					c0.3,1.1,0.5,1.8,0.5,2.2h0.1c0.1-0.3,0.2-0.6,0.3-1.1c0.1-0.5,0.3-0.8,0.4-1.1l1.5-4.8h1.4l1.4,4.8c0.3,0.9,0.5,1.6,0.5,2.2
					h0.1c0-0.2,0.1-0.5,0.2-0.8c0.1-0.4,0.6-2.4,1.5-6.1h1.3l-2.3,8.3L271.2,12.7L271.2,12.7z"/>
				<path id="Shape_00000164477846167811064200000015885504694640559534_" class="st0" d="M281.5,12.7l-0.3-1.2h-0.1
					c-0.5,0.5-0.8,0.9-1.3,1.1c-0.5,0.2-0.9,0.3-1.5,0.3c-0.8,0-1.4-0.2-1.9-0.6c-0.5-0.5-0.7-1-0.7-1.8c0-1.7,1.4-2.5,4.1-2.6
					l1.4-0.1V7.2c0-0.6-0.2-1.2-0.5-1.4c-0.3-0.3-0.7-0.5-1.4-0.5c-0.7,0-1.4,0.2-2.3,0.6l-0.4-1c0.5-0.2,0.8-0.4,1.4-0.5
					c0.5-0.1,1-0.2,1.4-0.2c1,0,1.7,0.2,2.2,0.6c0.5,0.5,0.7,1.2,0.7,2.1v5.7L281.5,12.7L281.5,12.7z M278.7,11.8
					c0.8,0,1.4-0.2,1.8-0.6c0.5-0.5,0.6-1,0.6-1.8V8.7l-1.3,0.1c-1,0-1.7,0.2-2.2,0.5c-0.5,0.3-0.6,0.7-0.6,1.3c0,0.5,0.2,0.8,0.5,1
					C277.8,11.7,278.2,11.8,278.7,11.8z"/>
				<path id="Shape_00000109731153262557224520000010508543528614465160_" class="st0" d="M288.8,4.2c0.4,0,0.7,0,1,0.1l-0.2,1.2
					c-0.4-0.1-0.6-0.1-0.9-0.1c-0.6,0-1.3,0.3-1.7,0.8c-0.5,0.5-0.7,1.3-0.7,2.1v4.4h-1.3V4.4h1l0.2,1.5h0.1c0.3-0.5,0.7-1,1.1-1.3
					C287.8,4.4,288.3,4.2,288.8,4.2z"/>
				<path id="Shape_00000057116487345756606140000000343912458509325759_" class="st0" d="M297,11.6L297,11.6
					c-0.6,0.8-1.5,1.3-2.7,1.3c-1.1,0-1.9-0.4-2.5-1.1c-0.6-0.7-0.9-1.8-0.9-3.2s0.3-2.4,0.9-3.2s1.4-1.2,2.5-1.2s2,0.5,2.6,1.3h0.1
					L296.9,5V4.4V0.9h1.3v11.8h-1L297,11.6z M294.5,11.8c0.9,0,1.4-0.3,1.9-0.7c0.4-0.5,0.5-1.3,0.5-2.3V8.6c0-1.2-0.2-2-0.6-2.5
					c-0.4-0.5-1-0.7-1.9-0.7c-0.7,0-1.3,0.3-1.7,0.9c-0.4,0.5-0.6,1.4-0.6,2.4c0,1.1,0.2,1.9,0.5,2.4
					C293.2,11.5,293.7,11.8,294.5,11.8z"/>
				<path id="Shape_00000041295211570678755860000002145262164406188214_" class="st0" d="M306.2,10.5c0,0.8-0.3,1.4-0.9,1.8
					c-0.5,0.5-1.4,0.6-2.4,0.6c-1.1,0-2-0.2-2.6-0.5v-1.2c0.4,0.2,0.8,0.4,1.3,0.5c0.5,0.1,0.9,0.2,1.4,0.2c0.6,0,1.2-0.1,1.5-0.3
					s0.5-0.5,0.5-1c0-0.4-0.2-0.6-0.5-0.8c-0.3-0.3-0.8-0.5-1.6-0.8c-0.8-0.3-1.4-0.5-1.6-0.7c-0.4-0.2-0.5-0.5-0.7-0.7
					c-0.2-0.3-0.3-0.6-0.3-1c0-0.6,0.3-1.2,0.8-1.6c0.5-0.5,1.3-0.6,2.3-0.6c0.9,0,1.8,0.2,2.6,0.5l-0.5,1c-0.8-0.4-1.6-0.5-2.3-0.5
					c-0.6,0-1.1,0.1-1.4,0.3c-0.3,0.2-0.5,0.5-0.5,0.8c0,0.2,0.1,0.5,0.2,0.5c0.1,0.2,0.3,0.3,0.5,0.5s0.7,0.4,1.4,0.6
					c1,0.4,1.6,0.7,2,1.1C306,9.5,306.2,9.9,306.2,10.5z"/>
			</g>
		</g>
	</g>
</g>
</svg>
