<?xml version="1.0" encoding="utf-8"?>
<!-- Generator: Adobe Illustrator 24.0.1, SVG Export Plug-In . SVG Version: 6.00 Build 0)  -->
<svg version="1.1" id="Layer_1" xmlns="http://www.w3.org/2000/svg" xmlns:xlink="http://www.w3.org/1999/xlink" x="0px" y="0px"
	 viewBox="0 0 22 22" style="enable-background:new 0 0 22 22;" xml:space="preserve">
<style type="text/css">
	.st0{fill:#FFFFFF;}
</style>
<g>
	<g>
		<path class="st0" d="M15.7,5.3c-0.6,0-1,0.5-1,1c0,0.6,0.5,1,1,1c0.6,0,1-0.5,1-1C16.7,5.8,16.2,5.3,15.7,5.3z"/>
		<path class="st0" d="M11.1,6.7c-2.4,0-4.3,1.9-4.3,4.3c0,2.4,1.9,4.3,4.3,4.3c2.4,0,4.3-1.9,4.3-4.3C15.4,8.6,13.5,6.7,11.1,6.7z
			 M11.1,13.8c-1.5,0-2.8-1.2-2.8-2.8s1.2-2.8,2.8-2.8c1.5,0,2.8,1.2,2.8,2.8S12.6,13.8,11.1,13.8z"/>
		<path class="st0" d="M14.5,19.8h-7c-2.9,0-5.3-2.4-5.3-5.3v-7c0-2.9,2.4-5.3,5.3-5.3h7c2.9,0,5.3,2.4,5.3,5.3v7
			C19.8,17.4,17.4,19.8,14.5,19.8z M7.5,3.8c-2,0-3.6,1.6-3.6,3.6v7c0,2,1.6,3.6,3.6,3.6h7c2,0,3.6-1.6,3.6-3.6v-7
			c0-2-1.6-3.6-3.6-3.6H7.5z"/>
	</g>
</g>
</svg>
