<?xml version="1.0" encoding="utf-8"?>
<!-- Generator: Adobe Illustrator 24.0.1, SVG Export Plug-In . SVG Version: 6.00 Build 0)  -->
<svg version="1.1" id="Layer_1" xmlns="http://www.w3.org/2000/svg" xmlns:xlink="http://www.w3.org/1999/xlink" x="0px" y="0px"
	 viewBox="0 0 22 22" style="enable-background:new 0 0 22 22;" xml:space="preserve">
<style type="text/css">
	.st0{fill:#FFFFFF;}
</style>
<g>
	<path class="st0" d="M2.6,8.1h3.6v11.6H2.6V8.1z M4.4,2.3c1.2,0,2.1,0.9,2.1,2.1c0,1.2-0.9,2.1-2.1,2.1c-1.2,0-2.1-0.9-2.1-2.1
		C2.3,3.3,3.2,2.3,4.4,2.3"/>
	<path class="st0" d="M8.5,8.1h3.5v1.6h0c0.5-0.9,1.7-1.9,3.4-1.9c3.6,0,4.3,2.4,4.3,5.5v6.4h-3.6V14c0-1.3,0-3.1-1.9-3.1
		c-1.9,0-2.2,1.5-2.2,3v5.7H8.5V8.1z"/>
</g>
</svg>
